v 1.000000 1.000000 -1.000000
v 1.000000 -1.000000 -1.000000
v 1.000000 1.000000 1.000000
v 1.000000 -1.000000 1.000000
v -1.000000 1.000000 -1.000000
v -1.000000 -1.000000 -1.000000
v -1.000000 1.000000 1.000000
v -1.000000 -1.000000 1.000000
v 0.747290 1.000000 -0.747290
v -0.747290 1.000000 -0.747290
v -0.747290 1.000000 0.747290
v 0.747290 1.000000 0.747290
v 0.747290 -0.747290 1.000000
v 0.747290 0.747290 1.000000
v -0.747290 0.747290 1.000000
v -0.747290 -0.747290 1.000000
v -1.000000 -0.747290 0.747290
v -1.000000 0.747290 0.747290
v -1.000000 0.747290 -0.747290
v -1.000000 -0.747290 -0.747290
v 1.000000 -0.747290 -0.747290
v 1.000000 0.747290 -0.747290
v 1.000000 0.747290 0.747290
v 1.000000 -0.747290 0.747290
v -0.747290 -0.747290 -1.000000
v -0.747290 0.747290 -1.000000
v 0.747290 0.747290 -1.000000
v 0.747290 -0.747290 -1.000000
v -0.747290 0.838417 -0.747290
v 0.747290 0.838417 -0.747290
v 0.747290 0.838417 0.747290
v -0.747290 0.838417 0.747290
v 0.747290 0.747290 0.838417
v 0.747290 -0.747290 0.838417
v -0.747290 -0.747290 0.838417
v -0.747290 0.747290 0.838417
v -0.838417 -0.747290 0.747290
v -0.838417 0.747290 0.747290
v -0.838417 -0.747290 -0.747290
v -0.838417 0.747290 -0.747290
v 0.838417 0.747290 -0.747290
v 0.838417 -0.747290 -0.747290
v 0.838417 -0.747290 0.747290
v 0.838417 0.747290 0.747290
v -0.747290 0.747290 -0.838417
v -0.747290 -0.747290 -0.838417
v 0.747290 -0.747290 -0.838417
v 0.747290 0.747290 -0.838417
vt 0.406589 0.031589
vt 0.593411 0.031589
vt 0.593411 0.031589
vt 0.406589 0.031589
vt 0.656589 0.718411
vt 0.656589 0.531589
vt 0.656589 0.531589
vt 0.656589 0.718411
vt 0.406589 0.781589
vt 0.593411 0.781589
vt 0.593411 0.781589
vt 0.406589 0.781589
vt 0.125000 0.500000
vt 0.375000 0.500000
vt 0.375000 0.750000
vt 0.125000 0.750000
vt 0.843411 0.531589
vt 0.843411 0.531589
vt 0.593411 0.468411
vt 0.406589 0.468411
vt 0.406589 0.468411
vt 0.593411 0.468411
vt 0.625000 0.500000
vt 0.875000 0.500000
vt 0.875000 0.750000
vt 0.843411 0.718411
vt 0.625000 0.750000
vt 0.625000 1.000000
vt 0.593411 0.968411
vt 0.375000 1.000000
vt 0.406589 0.968411
vt 0.375000 0.000000
vt 0.625000 0.000000
vt 0.625000 0.250000
vt 0.593411 0.218411
vt 0.375000 0.250000
vt 0.406589 0.218411
vt 0.593411 0.531589
vt 0.406589 0.531589
vt 0.593411 0.718411
vt 0.406589 0.718411
vt 0.593411 0.281589
vt 0.406589 0.281589
vt 0.843411 0.718411
vt 0.593411 0.968411
vt 0.406589 0.968411
vt 0.593411 0.218411
vt 0.406589 0.218411
vt 0.406589 0.531589
vt 0.593411 0.531589
vt 0.593411 0.718411
vt 0.406589 0.718411
vt 0.406589 0.281589
vt 0.593411 0.281589
vn 0.0000 0.0000 -1.0000
vn -1.0000 0.0000 0.0000
vn 0.0000 -1.0000 0.0000
vn 0.0000 0.0000 1.0000
vn 0.0000 1.0000 -0.0000
vn 1.0000 0.0000 0.0000
f 17/1/1 18/2/1 38/3/1 37/4/1
f 12/5/2 9/6/2 30/7/2 31/8/2
f 13/9/2 14/10/2 33/11/2 34/12/2
f 6/13/3 2/14/3 4/15/3 8/16/3
f 9/6/4 10/17/4 29/18/4 30/7/4
f 27/19/2 28/20/2 47/21/2 48/22/2
f 1/23/5 5/24/5 10/17/5 9/6/5
f 5/24/5 7/25/5 11/26/5 10/17/5
f 7/25/5 3/27/5 12/5/5 11/26/5
f 3/27/5 1/23/5 9/6/5 12/5/5
f 4/15/4 3/27/4 14/10/4 13/9/4
f 3/27/4 7/28/4 15/29/4 14/10/4
f 7/28/4 8/30/4 16/31/4 15/29/4
f 8/30/4 4/15/4 13/9/4 16/31/4
f 8/32/2 7/33/2 18/2/2 17/1/2
f 7/33/2 5/34/2 19/35/2 18/2/2
f 5/34/2 6/36/2 20/37/2 19/35/2
f 6/36/2 8/32/2 17/1/2 20/37/2
f 2/14/6 1/23/6 22/38/6 21/39/6
f 1/23/6 3/27/6 23/40/6 22/38/6
f 3/27/6 4/15/6 24/41/6 23/40/6
f 4/15/6 2/14/6 21/39/6 24/41/6
f 6/36/1 5/34/1 26/42/1 25/43/1
f 5/34/1 1/23/1 27/19/1 26/42/1
f 1/23/1 2/14/1 28/20/1 27/19/1
f 2/14/1 6/36/1 25/43/1 28/20/1
f 30/7/5 29/18/5 32/44/5 31/8/5
f 34/12/4 33/11/4 36/45/4 35/46/4
f 37/4/2 38/3/2 40/47/2 39/48/2
f 42/49/6 41/50/6 44/51/6 43/52/6
f 46/53/1 45/54/1 48/22/1 47/21/1
f 16/31/5 13/9/5 34/12/5 35/46/5
f 21/39/4 22/38/4 41/50/4 42/49/4
f 10/17/6 11/26/6 32/44/6 29/18/6
f 20/37/5 17/1/5 37/4/5 39/48/5
f 25/43/6 26/42/6 45/54/6 46/53/6
f 14/10/3 15/29/3 36/45/3 33/11/3
f 24/41/5 21/39/5 42/49/5 43/52/5
f 11/26/1 12/5/1 31/8/1 32/44/1
f 18/2/3 19/35/3 40/47/3 38/3/3
f 28/20/5 25/43/5 46/53/5 47/21/5
f 15/29/6 16/31/6 35/46/6 36/45/6
f 22/38/3 23/40/3 44/51/3 41/50/3
f 19/35/4 20/37/4 39/48/4 40/47/4
f 26/42/3 27/19/3 48/22/3 45/54/3
f 23/40/1 24/41/1 43/52/1 44/51/1
